<svg xmlns="http://www.w3.org/2000/svg" xmlns:xlink="http://www.w3.org/1999/xlink" width="40" zoomAndPan="magnify" viewBox="0 0 30 30.000001" height="40" preserveAspectRatio="xMidYMid meet" version="1.0"><defs><clipPath id="2c59095b6a"><path d="M 0.917969 0.871094 L 29.226562 0.871094 L 29.226562 29.03125 L 0.917969 29.03125 Z M 0.917969 0.871094 " clip-rule="nonzero"/></clipPath><clipPath id="2d021da80c"><path d="M 0.484375 26.09375 L 1.472656 26.09375 L 1.472656 29.03125 L 0.484375 29.03125 Z M 0.484375 26.09375 " clip-rule="nonzero"/></clipPath></defs><g clip-path="url(#2c59095b6a)"><path fill="#0097b2" d="M 15 0.871094 C 7.222656 0.871094 0.917969 7.175781 0.917969 14.949219 C 0.917969 22.726562 7.222656 29.03125 15 29.03125 C 22.773438 29.03125 29.078125 22.726562 29.078125 14.949219 C 29.078125 7.175781 22.773438 0.871094 15 0.871094 Z M 14.972656 28.777344 C 7.378906 28.777344 1.199219 22.601562 1.199219 15.007812 C 1.199219 7.414062 7.378906 1.238281 14.972656 1.238281 C 22.5625 1.238281 28.742188 7.414062 28.742188 15.007812 C 28.742188 22.601562 22.5625 28.777344 14.972656 28.777344 Z M 14.972656 28.777344 " fill-opacity="1" fill-rule="nonzero"/></g><path fill="#0097b2" d="M 26.734375 14.519531 L 25.234375 14.519531 C 25.152344 14.519531 25.085938 14.457031 25.078125 14.375 C 25.023438 13.46875 24.847656 12.574219 24.558594 11.722656 C 24.53125 11.644531 24.570312 11.5625 24.644531 11.53125 L 26.027344 10.957031 C 26.066406 10.941406 26.113281 10.941406 26.148438 10.957031 C 26.1875 10.976562 26.21875 11.007812 26.234375 11.046875 C 26.609375 12.113281 26.828125 13.226562 26.890625 14.359375 C 26.890625 14.398438 26.878906 14.441406 26.847656 14.472656 C 26.820312 14.503906 26.777344 14.519531 26.734375 14.519531 Z M 25.378906 14.210938 L 26.570312 14.210938 C 26.503906 13.21875 26.308594 12.246094 25.996094 11.304688 L 24.894531 11.761719 C 25.152344 12.550781 25.316406 13.375 25.378906 14.210938 Z M 25.378906 14.210938 " fill-opacity="1" fill-rule="nonzero"/><path fill="#0097b2" d="M 24.210938 10.640625 C 24.15625 10.640625 24.097656 10.609375 24.074219 10.554688 C 23.675781 9.746094 23.167969 8.988281 22.566406 8.308594 C 22.511719 8.246094 22.515625 8.152344 22.574219 8.097656 L 23.632812 7.039062 C 23.660156 7.007812 23.703125 6.992188 23.746094 6.992188 C 23.785156 6.996094 23.828125 7.011719 23.855469 7.042969 C 24.613281 7.886719 25.242188 8.828125 25.734375 9.847656 C 25.75 9.882812 25.753906 9.929688 25.738281 9.96875 C 25.722656 10.007812 25.691406 10.039062 25.652344 10.054688 L 24.269531 10.628906 C 24.25 10.636719 24.230469 10.640625 24.210938 10.640625 Z M 22.894531 8.214844 C 23.441406 8.847656 23.910156 9.546875 24.285156 10.289062 L 25.382812 9.832031 C 24.941406 8.949219 24.386719 8.121094 23.734375 7.375 Z M 22.894531 8.214844 " fill-opacity="1" fill-rule="nonzero"/><path fill="#0097b2" d="M 15.613281 24.136719 C 15.574219 24.136719 15.535156 24.125 15.507812 24.097656 C 15.476562 24.066406 15.457031 24.027344 15.457031 23.984375 L 15.457031 22.046875 C 15.457031 21.96875 15.519531 21.902344 15.597656 21.894531 C 16.085938 21.851562 16.566406 21.753906 17.027344 21.613281 C 17.101562 21.589844 17.183594 21.625 17.214844 21.699219 L 17.953125 23.488281 C 17.972656 23.527344 17.96875 23.570312 17.953125 23.609375 C 17.933594 23.648438 17.902344 23.679688 17.859375 23.695312 C 17.140625 23.933594 16.386719 24.085938 15.625 24.136719 C 15.621094 24.136719 15.617188 24.136719 15.613281 24.136719 Z M 15.769531 22.1875 L 15.769531 23.816406 C 16.394531 23.761719 17.007812 23.636719 17.605469 23.449219 L 16.980469 21.949219 C 16.585938 22.0625 16.179688 22.144531 15.769531 22.1875 Z M 15.769531 22.1875 " fill-opacity="1" fill-rule="nonzero"/><path fill="#0097b2" d="M 15.613281 20.910156 C 15.574219 20.910156 15.539062 20.898438 15.511719 20.871094 C 15.476562 20.84375 15.457031 20.800781 15.457031 20.757812 L 15.457031 19.246094 C 15.457031 19.167969 15.515625 19.105469 15.589844 19.09375 C 16.25 18.992188 16.882812 18.730469 17.417969 18.332031 C 17.480469 18.289062 17.566406 18.296875 17.621094 18.347656 L 18.6875 19.417969 C 18.71875 19.449219 18.734375 19.492188 18.734375 19.535156 C 18.730469 19.578125 18.710938 19.617188 18.675781 19.648438 C 17.796875 20.351562 16.742188 20.785156 15.628906 20.910156 C 15.625 20.910156 15.621094 20.910156 15.613281 20.910156 Z M 15.769531 19.375 L 15.769531 20.582031 C 16.703125 20.449219 17.585938 20.082031 18.347656 19.511719 L 17.496094 18.660156 C 16.976562 19.019531 16.386719 19.265625 15.769531 19.375 Z M 15.769531 19.375 " fill-opacity="1" fill-rule="nonzero"/><path fill="#0097b2" d="M 21.226562 11.875 C 21.171875 11.875 21.117188 11.84375 21.089844 11.792969 C 20.863281 11.363281 20.59375 10.957031 20.28125 10.585938 C 20.230469 10.523438 20.234375 10.433594 20.292969 10.378906 L 21.660156 9.011719 C 21.6875 8.980469 21.730469 8.964844 21.773438 8.964844 C 21.816406 8.96875 21.855469 8.984375 21.886719 9.019531 C 22.386719 9.59375 22.8125 10.230469 23.152344 10.910156 C 23.171875 10.949219 23.175781 10.996094 23.160156 11.035156 C 23.144531 11.074219 23.113281 11.109375 23.074219 11.125 L 21.289062 11.863281 C 21.285156 11.863281 21.285156 11.863281 21.285156 11.867188 C 21.265625 11.871094 21.246094 11.875 21.226562 11.875 Z M 20.609375 10.496094 C 20.867188 10.820312 21.097656 11.164062 21.296875 11.523438 L 22.800781 10.902344 C 22.511719 10.351562 22.160156 9.828125 21.757812 9.347656 Z M 20.609375 10.496094 " fill-opacity="1" fill-rule="nonzero"/><path fill="#0097b2" d="M 20.71875 14.519531 L 19.207031 14.519531 C 19.128906 14.519531 19.066406 14.464844 19.054688 14.390625 C 18.953125 13.730469 18.691406 13.097656 18.296875 12.558594 C 18.25 12.5 18.257812 12.414062 18.3125 12.359375 L 19.378906 11.292969 C 19.410156 11.261719 19.453125 11.242188 19.496094 11.246094 C 19.539062 11.25 19.582031 11.269531 19.609375 11.304688 C 20.3125 12.183594 20.75 13.234375 20.871094 14.347656 C 20.878906 14.394531 20.863281 14.4375 20.835938 14.46875 C 20.804688 14.503906 20.761719 14.519531 20.71875 14.519531 Z M 19.339844 14.210938 L 20.542969 14.210938 C 20.410156 13.277344 20.042969 12.390625 19.472656 11.632812 L 18.621094 12.484375 C 18.980469 13.003906 19.226562 13.59375 19.339844 14.210938 Z M 19.339844 14.210938 " fill-opacity="1" fill-rule="nonzero"/><path fill="#0097b2" d="M 19.488281 18.773438 C 19.449219 18.773438 19.40625 18.753906 19.378906 18.726562 L 18.3125 17.660156 C 18.257812 17.605469 18.25 17.519531 18.296875 17.457031 C 18.691406 16.917969 18.957031 16.289062 19.054688 15.628906 C 19.066406 15.550781 19.128906 15.496094 19.207031 15.496094 L 20.71875 15.496094 C 20.761719 15.496094 20.804688 15.515625 20.835938 15.546875 C 20.863281 15.582031 20.878906 15.625 20.871094 15.667969 C 20.75 16.78125 20.3125 17.835938 19.609375 18.714844 C 19.582031 18.746094 19.539062 18.769531 19.496094 18.769531 C 19.492188 18.773438 19.492188 18.773438 19.488281 18.773438 Z M 18.621094 17.53125 L 19.472656 18.382812 C 20.042969 17.625 20.410156 16.742188 20.542969 15.804688 L 19.339844 15.804688 C 19.226562 16.421875 18.980469 17.015625 18.621094 17.53125 Z M 18.621094 17.53125 " fill-opacity="1" fill-rule="nonzero"/><path fill="#0097b2" d="M 21.769531 21.050781 C 21.726562 21.050781 21.6875 21.035156 21.660156 21.007812 L 20.292969 19.640625 C 20.234375 19.582031 20.230469 19.492188 20.28125 19.429688 C 20.59375 19.058594 20.863281 18.652344 21.089844 18.222656 C 21.128906 18.152344 21.210938 18.125 21.285156 18.152344 L 23.074219 18.894531 C 23.113281 18.910156 23.144531 18.941406 23.160156 18.980469 C 23.175781 19.023438 23.171875 19.066406 23.152344 19.105469 C 22.8125 19.785156 22.386719 20.421875 21.886719 21 C 21.855469 21.03125 21.816406 21.050781 21.773438 21.050781 C 21.773438 21.050781 21.769531 21.050781 21.769531 21.050781 Z M 20.609375 19.519531 L 21.757812 20.667969 C 22.160156 20.191406 22.511719 19.667969 22.800781 19.113281 L 21.296875 18.492188 C 21.097656 18.851562 20.867188 19.199219 20.609375 19.519531 Z M 20.609375 19.519531 " fill-opacity="1" fill-rule="nonzero"/><path fill="#0097b2" d="M 23.507812 18.003906 C 23.488281 18.003906 23.46875 18 23.449219 17.992188 L 21.664062 17.253906 C 21.589844 17.222656 21.550781 17.140625 21.574219 17.0625 C 21.71875 16.601562 21.8125 16.125 21.855469 15.636719 C 21.863281 15.558594 21.929688 15.496094 22.011719 15.496094 L 23.945312 15.496094 C 23.988281 15.496094 24.03125 15.515625 24.058594 15.546875 C 24.089844 15.578125 24.101562 15.621094 24.101562 15.664062 C 24.046875 16.425781 23.894531 17.175781 23.65625 17.898438 C 23.640625 17.941406 23.613281 17.972656 23.574219 17.992188 C 23.550781 18 23.53125 18.003906 23.507812 18.003906 Z M 21.910156 17.019531 L 23.414062 17.644531 C 23.597656 17.046875 23.722656 16.429688 23.777344 15.804688 L 22.152344 15.804688 C 22.105469 16.21875 22.023438 16.625 21.910156 17.019531 Z M 21.910156 17.019531 " fill-opacity="1" fill-rule="nonzero"/><path fill="#0097b2" d="M 23.945312 14.519531 L 22.011719 14.519531 C 21.929688 14.519531 21.863281 14.460938 21.855469 14.378906 C 21.8125 13.894531 21.71875 13.414062 21.574219 12.953125 C 21.550781 12.878906 21.589844 12.796875 21.664062 12.765625 L 23.449219 12.023438 C 23.488281 12.007812 23.535156 12.007812 23.574219 12.027344 C 23.613281 12.042969 23.640625 12.078125 23.65625 12.117188 C 23.894531 12.839844 24.046875 13.59375 24.101562 14.355469 C 24.101562 14.398438 24.089844 14.441406 24.058594 14.472656 C 24.03125 14.503906 23.988281 14.519531 23.945312 14.519531 Z M 22.152344 14.210938 L 23.777344 14.210938 C 23.722656 13.585938 23.597656 12.96875 23.414062 12.375 L 21.910156 12.996094 C 22.023438 13.390625 22.105469 13.800781 22.152344 14.210938 Z M 22.152344 14.210938 " fill-opacity="1" fill-rule="nonzero"/><path fill="#0097b2" d="M 21.773438 7.453125 C 21.738281 7.453125 21.699219 7.4375 21.671875 7.414062 C 20.988281 6.808594 20.234375 6.304688 19.425781 5.90625 C 19.351562 5.871094 19.320312 5.785156 19.351562 5.710938 L 19.925781 4.328125 C 19.941406 4.289062 19.972656 4.257812 20.011719 4.242188 C 20.050781 4.226562 20.09375 4.226562 20.132812 4.246094 C 21.148438 4.738281 22.09375 5.367188 22.933594 6.125 C 22.964844 6.152344 22.984375 6.191406 22.984375 6.234375 C 22.988281 6.277344 22.972656 6.320312 22.941406 6.347656 L 21.882812 7.40625 C 21.851562 7.4375 21.8125 7.453125 21.773438 7.453125 Z M 19.691406 5.695312 C 20.433594 6.070312 21.128906 6.539062 21.765625 7.085938 L 22.605469 6.246094 C 21.859375 5.59375 21.03125 5.039062 20.148438 4.597656 Z M 19.691406 5.695312 " fill-opacity="1" fill-rule="nonzero"/><path fill="#0097b2" d="M 19.492188 9.734375 C 19.457031 9.734375 19.421875 9.722656 19.394531 9.699219 C 19.019531 9.386719 18.613281 9.113281 18.1875 8.890625 C 18.117188 8.851562 18.085938 8.773438 18.113281 8.699219 C 18.113281 8.699219 18.113281 8.695312 18.117188 8.691406 L 18.855469 6.90625 C 18.871094 6.867188 18.90625 6.835938 18.945312 6.820312 C 18.984375 6.804688 19.03125 6.808594 19.066406 6.828125 C 19.746094 7.167969 20.382812 7.59375 20.960938 8.09375 C 20.992188 8.121094 21.011719 8.164062 21.015625 8.207031 C 21.015625 8.25 21 8.289062 20.96875 8.320312 L 19.601562 9.6875 C 19.570312 9.71875 19.53125 9.734375 19.492188 9.734375 Z M 18.453125 8.683594 C 18.816406 8.882812 19.160156 9.113281 19.480469 9.371094 L 20.632812 8.21875 C 20.152344 7.820312 19.628906 7.46875 19.078125 7.179688 Z M 18.453125 8.683594 " fill-opacity="1" fill-rule="nonzero"/><path fill="#0097b2" d="M 18.308594 5.429688 C 18.289062 5.429688 18.273438 5.429688 18.257812 5.421875 C 17.40625 5.132812 16.511719 4.957031 15.605469 4.898438 C 15.523438 4.894531 15.457031 4.828125 15.457031 4.746094 L 15.457031 3.242188 C 15.457031 3.203125 15.476562 3.160156 15.507812 3.132812 C 15.539062 3.101562 15.578125 3.085938 15.621094 3.089844 C 16.753906 3.148438 17.867188 3.371094 18.929688 3.746094 C 18.972656 3.761719 19.003906 3.789062 19.019531 3.828125 C 19.039062 3.867188 19.039062 3.914062 19.023438 3.953125 L 18.449219 5.335938 C 18.425781 5.394531 18.367188 5.429688 18.308594 5.429688 Z M 15.769531 4.601562 C 16.605469 4.664062 17.429688 4.824219 18.21875 5.082031 L 18.675781 3.984375 C 17.734375 3.667969 16.757812 3.476562 15.769531 3.410156 Z M 15.769531 4.601562 " fill-opacity="1" fill-rule="nonzero"/><path fill="#0097b2" d="M 17.070312 8.414062 C 17.054688 8.414062 17.039062 8.410156 17.027344 8.40625 C 16.566406 8.261719 16.085938 8.167969 15.601562 8.121094 C 15.519531 8.117188 15.457031 8.046875 15.457031 7.96875 L 15.457031 6.035156 C 15.457031 5.992188 15.476562 5.949219 15.507812 5.921875 C 15.539062 5.890625 15.582031 5.875 15.625 5.878906 C 16.386719 5.933594 17.140625 6.082031 17.859375 6.324219 C 17.902344 6.339844 17.933594 6.367188 17.953125 6.40625 C 17.972656 6.445312 17.972656 6.492188 17.953125 6.53125 L 17.214844 8.316406 C 17.191406 8.375 17.132812 8.414062 17.070312 8.414062 Z M 15.769531 7.828125 C 16.179688 7.875 16.585938 7.953125 16.980469 8.070312 L 17.605469 6.566406 C 17.007812 6.378906 16.394531 6.257812 15.769531 6.203125 Z M 15.769531 7.828125 " fill-opacity="1" fill-rule="nonzero"/><path fill="#0097b2" d="M 17.511719 11.714844 C 17.480469 11.714844 17.449219 11.703125 17.421875 11.683594 C 16.882812 11.285156 16.25 11.023438 15.589844 10.925781 C 15.515625 10.914062 15.457031 10.847656 15.457031 10.773438 L 15.457031 9.261719 C 15.457031 9.214844 15.476562 9.175781 15.511719 9.144531 C 15.542969 9.117188 15.585938 9.101562 15.628906 9.105469 C 16.746094 9.230469 17.796875 9.667969 18.675781 10.371094 C 18.710938 10.398438 18.730469 10.4375 18.734375 10.484375 C 18.734375 10.527344 18.71875 10.570312 18.6875 10.601562 L 17.621094 11.667969 C 17.589844 11.699219 17.550781 11.714844 17.511719 11.714844 Z M 15.769531 10.640625 C 16.386719 10.753906 16.976562 11 17.496094 11.355469 L 18.34375 10.507812 C 17.585938 9.9375 16.703125 9.570312 15.769531 9.4375 Z M 15.769531 10.640625 " fill-opacity="1" fill-rule="nonzero"/><path fill="#0097b2" d="M 10.734375 14.519531 L 9.222656 14.519531 C 9.179688 14.519531 9.136719 14.503906 9.105469 14.46875 C 9.078125 14.4375 9.0625 14.394531 9.070312 14.347656 C 9.191406 13.234375 9.628906 12.183594 10.332031 11.304688 C 10.359375 11.269531 10.402344 11.25 10.445312 11.246094 C 10.488281 11.242188 10.53125 11.261719 10.5625 11.292969 L 11.628906 12.359375 C 11.683594 12.414062 11.691406 12.496094 11.644531 12.558594 C 11.25 13.097656 10.984375 13.730469 10.886719 14.390625 C 10.875 14.464844 10.8125 14.519531 10.734375 14.519531 Z M 9.398438 14.210938 L 10.601562 14.210938 C 10.714844 13.59375 10.960938 13 11.320312 12.484375 L 10.46875 11.632812 C 9.898438 12.390625 9.53125 13.277344 9.398438 14.210938 Z M 9.398438 14.210938 " fill-opacity="1" fill-rule="nonzero"/><path fill="#0097b2" d="M 8.714844 11.875 C 8.695312 11.875 8.675781 11.871094 8.65625 11.863281 L 6.867188 11.125 C 6.828125 11.105469 6.796875 11.074219 6.78125 11.035156 C 6.765625 10.996094 6.769531 10.949219 6.789062 10.910156 C 7.128906 10.230469 7.558594 9.59375 8.054688 9.019531 C 8.085938 8.988281 8.125 8.96875 8.167969 8.964844 C 8.210938 8.964844 8.253906 8.980469 8.28125 9.011719 L 9.648438 10.378906 C 9.707031 10.433594 9.710938 10.523438 9.660156 10.585938 C 9.347656 10.957031 9.078125 11.363281 8.851562 11.792969 C 8.824219 11.847656 8.769531 11.875 8.714844 11.875 Z M 7.140625 10.902344 L 8.644531 11.523438 C 8.84375 11.164062 9.074219 10.820312 9.332031 10.496094 L 8.183594 9.347656 C 7.78125 9.828125 7.433594 10.347656 7.140625 10.902344 Z M 7.140625 10.902344 " fill-opacity="1" fill-rule="nonzero"/><path fill="#0097b2" d="M 7.929688 14.519531 L 5.996094 14.519531 C 5.953125 14.519531 5.910156 14.503906 5.882812 14.472656 C 5.855469 14.441406 5.839844 14.398438 5.839844 14.355469 C 5.894531 13.59375 6.046875 12.839844 6.285156 12.117188 C 6.300781 12.078125 6.328125 12.042969 6.367188 12.027344 C 6.40625 12.007812 6.453125 12.007812 6.492188 12.023438 L 8.277344 12.765625 C 8.351562 12.796875 8.390625 12.878906 8.367188 12.953125 C 8.222656 13.414062 8.128906 13.894531 8.085938 14.378906 C 8.078125 14.460938 8.011719 14.519531 7.929688 14.519531 Z M 6.164062 14.210938 L 7.789062 14.210938 C 7.835938 13.800781 7.917969 13.390625 8.03125 12.996094 L 6.527344 12.375 C 6.34375 12.96875 6.21875 13.585938 6.164062 14.210938 Z M 6.164062 14.210938 " fill-opacity="1" fill-rule="nonzero"/><path fill="#0097b2" d="M 6.433594 18.003906 C 6.410156 18.003906 6.390625 18 6.367188 17.992188 C 6.328125 17.972656 6.300781 17.941406 6.285156 17.898438 C 6.046875 17.175781 5.894531 16.425781 5.839844 15.664062 C 5.839844 15.621094 5.855469 15.578125 5.882812 15.546875 C 5.910156 15.515625 5.953125 15.496094 5.996094 15.496094 L 7.929688 15.496094 C 8.011719 15.496094 8.078125 15.558594 8.085938 15.636719 C 8.128906 16.121094 8.222656 16.601562 8.367188 17.0625 C 8.390625 17.140625 8.351562 17.222656 8.277344 17.253906 L 6.492188 17.992188 C 6.472656 18 6.453125 18.003906 6.433594 18.003906 Z M 6.164062 15.804688 C 6.21875 16.429688 6.34375 17.046875 6.527344 17.644531 L 8.03125 17.019531 C 7.917969 16.625 7.835938 16.21875 7.789062 15.804688 Z M 6.164062 15.804688 " fill-opacity="1" fill-rule="nonzero"/><path fill="#0097b2" d="M 8.171875 21.050781 C 8.171875 21.050781 8.167969 21.050781 8.167969 21.050781 C 8.125 21.050781 8.085938 21.03125 8.054688 21 C 7.558594 20.421875 7.128906 19.785156 6.789062 19.105469 C 6.769531 19.066406 6.765625 19.023438 6.78125 18.984375 C 6.796875 18.941406 6.828125 18.910156 6.867188 18.894531 L 8.652344 18.152344 C 8.65625 18.152344 8.65625 18.152344 8.65625 18.152344 L 8.660156 18.152344 C 8.730469 18.125 8.8125 18.15625 8.851562 18.222656 C 9.078125 18.652344 9.347656 19.058594 9.660156 19.429688 C 9.707031 19.488281 9.707031 19.574219 9.65625 19.628906 C 9.65625 19.632812 9.652344 19.636719 9.648438 19.640625 L 8.28125 21.007812 C 8.253906 21.035156 8.214844 21.050781 8.171875 21.050781 Z M 7.140625 19.113281 C 7.433594 19.667969 7.78125 20.191406 8.183594 20.667969 L 9.332031 19.519531 C 9.074219 19.199219 8.84375 18.851562 8.644531 18.492188 Z M 7.140625 19.113281 " fill-opacity="1" fill-rule="nonzero"/><path fill="#0097b2" d="M 10.453125 18.773438 C 10.449219 18.773438 10.449219 18.773438 10.445312 18.773438 C 10.402344 18.769531 10.359375 18.75 10.332031 18.714844 C 9.628906 17.835938 9.191406 16.78125 9.070312 15.667969 C 9.0625 15.625 9.078125 15.582031 9.105469 15.546875 C 9.136719 15.515625 9.179688 15.496094 9.222656 15.496094 L 10.734375 15.496094 C 10.8125 15.496094 10.875 15.554688 10.886719 15.628906 C 10.988281 16.289062 11.25 16.921875 11.644531 17.457031 C 11.691406 17.519531 11.683594 17.605469 11.628906 17.660156 L 10.5625 18.726562 C 10.535156 18.753906 10.496094 18.773438 10.453125 18.773438 Z M 9.398438 15.804688 C 9.53125 16.742188 9.898438 17.625 10.46875 18.382812 L 11.320312 17.53125 C 10.960938 17.015625 10.714844 16.421875 10.601562 15.804688 Z M 9.398438 15.804688 " fill-opacity="1" fill-rule="nonzero"/><path fill="#0097b2" d="M 12.429688 11.714844 C 12.390625 11.714844 12.351562 11.699219 12.320312 11.667969 L 11.253906 10.601562 C 11.222656 10.570312 11.207031 10.527344 11.207031 10.484375 C 11.210938 10.4375 11.230469 10.398438 11.265625 10.371094 C 12.144531 9.667969 13.199219 9.230469 14.3125 9.105469 C 14.355469 9.101562 14.398438 9.117188 14.429688 9.144531 C 14.464844 9.175781 14.484375 9.214844 14.484375 9.261719 L 14.484375 10.773438 C 14.484375 10.847656 14.425781 10.914062 14.351562 10.925781 C 13.691406 11.023438 13.058594 11.285156 12.523438 11.683594 C 12.496094 11.703125 12.460938 11.714844 12.429688 11.714844 Z M 11.597656 10.507812 L 12.445312 11.355469 C 12.964844 11 13.554688 10.753906 14.171875 10.640625 L 14.171875 9.4375 C 13.238281 9.570312 12.355469 9.9375 11.597656 10.507812 Z M 11.597656 10.507812 " fill-opacity="1" fill-rule="nonzero"/><path fill="#0097b2" d="M 12.871094 8.414062 C 12.808594 8.414062 12.75 8.375 12.726562 8.316406 L 11.988281 6.53125 C 11.972656 6.492188 11.972656 6.445312 11.988281 6.40625 C 12.007812 6.367188 12.039062 6.335938 12.082031 6.324219 C 12.800781 6.082031 13.554688 5.933594 14.316406 5.878906 C 14.359375 5.875 14.402344 5.890625 14.433594 5.921875 C 14.464844 5.949219 14.484375 5.992188 14.484375 6.035156 L 14.484375 7.96875 C 14.484375 8.046875 14.421875 8.117188 14.34375 8.121094 C 13.855469 8.167969 13.378906 8.261719 12.917969 8.40625 C 12.902344 8.410156 12.886719 8.414062 12.871094 8.414062 Z M 12.335938 6.566406 L 12.960938 8.070312 C 13.355469 7.953125 13.761719 7.875 14.171875 7.828125 L 14.171875 6.203125 C 13.550781 6.257812 12.933594 6.378906 12.335938 6.566406 Z M 12.335938 6.566406 " fill-opacity="1" fill-rule="nonzero"/><path fill="#0097b2" d="M 11.636719 5.429688 C 11.574219 5.429688 11.515625 5.394531 11.492188 5.335938 L 10.917969 3.953125 C 10.902344 3.914062 10.902344 3.867188 10.921875 3.828125 C 10.9375 3.789062 10.96875 3.761719 11.011719 3.746094 C 12.074219 3.371094 13.1875 3.148438 14.320312 3.089844 C 14.363281 3.085938 14.402344 3.101562 14.433594 3.132812 C 14.464844 3.160156 14.484375 3.203125 14.484375 3.242188 L 14.484375 4.746094 C 14.484375 4.828125 14.417969 4.894531 14.335938 4.898438 C 13.429688 4.957031 12.535156 5.132812 11.683594 5.421875 C 11.667969 5.429688 11.652344 5.429688 11.636719 5.429688 Z M 11.269531 3.984375 L 11.722656 5.082031 C 12.515625 4.824219 13.335938 4.664062 14.171875 4.601562 L 14.171875 3.410156 C 13.183594 3.476562 12.207031 3.667969 11.269531 3.984375 Z M 11.269531 3.984375 " fill-opacity="1" fill-rule="nonzero"/><path fill="#0097b2" d="M 10.449219 9.734375 C 10.410156 9.734375 10.371094 9.71875 10.339844 9.6875 L 8.972656 8.320312 C 8.941406 8.289062 8.925781 8.25 8.925781 8.207031 C 8.929688 8.164062 8.949219 8.121094 8.980469 8.09375 C 9.558594 7.59375 10.195312 7.167969 10.875 6.828125 C 10.914062 6.808594 10.957031 6.804688 10.996094 6.820312 C 11.039062 6.835938 11.070312 6.867188 11.085938 6.90625 L 11.828125 8.691406 C 11.828125 8.691406 11.828125 8.695312 11.828125 8.695312 C 11.855469 8.769531 11.824219 8.851562 11.753906 8.886719 C 11.328125 9.113281 10.921875 9.386719 10.550781 9.695312 C 10.519531 9.722656 10.484375 9.734375 10.449219 9.734375 Z M 9.308594 8.21875 L 10.460938 9.371094 C 10.78125 9.113281 11.125 8.882812 11.488281 8.683594 L 10.863281 7.179688 C 10.3125 7.46875 9.789062 7.820312 9.308594 8.21875 Z M 9.308594 8.21875 " fill-opacity="1" fill-rule="nonzero"/><path fill="#0097b2" d="M 8.167969 7.453125 C 8.128906 7.453125 8.089844 7.4375 8.058594 7.40625 L 7 6.347656 C 6.972656 6.320312 6.953125 6.277344 6.957031 6.234375 C 6.957031 6.191406 6.976562 6.152344 7.007812 6.125 C 7.847656 5.367188 8.792969 4.734375 9.808594 4.246094 C 9.847656 4.226562 9.890625 4.226562 9.929688 4.242188 C 9.96875 4.257812 10 4.289062 10.019531 4.328125 L 10.589844 5.707031 C 10.621094 5.785156 10.589844 5.871094 10.515625 5.90625 C 9.707031 6.304688 8.953125 6.808594 8.269531 7.414062 C 8.242188 7.4375 8.203125 7.453125 8.167969 7.453125 Z M 7.335938 6.246094 L 8.175781 7.085938 C 8.8125 6.539062 9.507812 6.070312 10.25 5.695312 L 9.796875 4.597656 C 8.910156 5.039062 8.082031 5.59375 7.335938 6.246094 Z M 7.335938 6.246094 " fill-opacity="1" fill-rule="nonzero"/><path fill="#0097b2" d="M 5.730469 10.640625 C 5.710938 10.640625 5.691406 10.636719 5.671875 10.628906 L 4.289062 10.054688 C 4.25 10.039062 4.21875 10.007812 4.203125 9.96875 C 4.1875 9.929688 4.191406 9.882812 4.207031 9.847656 C 4.699219 8.828125 5.328125 7.886719 6.085938 7.042969 C 6.113281 7.011719 6.15625 6.996094 6.195312 6.992188 C 6.238281 6.992188 6.28125 7.007812 6.3125 7.039062 L 7.367188 8.097656 C 7.425781 8.152344 7.429688 8.246094 7.375 8.308594 C 6.773438 8.988281 6.265625 9.746094 5.871094 10.554688 C 5.84375 10.609375 5.789062 10.640625 5.730469 10.640625 Z M 4.558594 9.832031 L 5.65625 10.289062 C 6.035156 9.546875 6.5 8.847656 7.046875 8.214844 L 6.207031 7.375 C 5.554688 8.121094 5 8.949219 4.558594 9.832031 Z M 4.558594 9.832031 " fill-opacity="1" fill-rule="nonzero"/><path fill="#0097b2" d="M 4.707031 14.519531 L 3.207031 14.519531 C 3.164062 14.519531 3.121094 14.503906 3.09375 14.472656 C 3.0625 14.441406 3.050781 14.398438 3.050781 14.359375 C 3.113281 13.226562 3.332031 12.113281 3.707031 11.046875 C 3.722656 11.007812 3.753906 10.976562 3.792969 10.957031 C 3.832031 10.941406 3.875 10.941406 3.914062 10.957031 L 5.296875 11.53125 C 5.371094 11.5625 5.410156 11.644531 5.382812 11.722656 C 5.09375 12.574219 4.917969 13.46875 4.863281 14.375 C 4.855469 14.457031 4.789062 14.519531 4.707031 14.519531 Z M 3.371094 14.210938 L 4.5625 14.210938 C 4.625 13.375 4.789062 12.550781 5.046875 11.761719 L 3.949219 11.304688 C 3.632812 12.242188 3.4375 13.21875 3.371094 14.210938 Z M 3.371094 14.210938 " fill-opacity="1" fill-rule="nonzero"/><path fill="#0097b2" d="M 3.855469 19.074219 C 3.832031 19.074219 3.8125 19.066406 3.792969 19.058594 C 3.753906 19.042969 3.722656 19.007812 3.707031 18.96875 C 3.332031 17.90625 3.113281 16.792969 3.050781 15.660156 C 3.050781 15.617188 3.0625 15.574219 3.09375 15.546875 C 3.121094 15.515625 3.164062 15.496094 3.207031 15.496094 L 4.707031 15.496094 C 4.789062 15.496094 4.855469 15.558594 4.863281 15.640625 C 4.917969 16.550781 5.09375 17.441406 5.386719 18.292969 C 5.410156 18.371094 5.375 18.457031 5.296875 18.488281 L 3.914062 19.0625 C 3.894531 19.070312 3.875 19.074219 3.855469 19.074219 Z M 3.371094 15.804688 C 3.4375 16.796875 3.632812 17.773438 3.949219 18.710938 L 5.046875 18.257812 C 4.789062 17.464844 4.625 16.644531 4.5625 15.804688 Z M 3.371094 15.804688 " fill-opacity="1" fill-rule="nonzero"/><path fill="#0097b2" d="M 6.199219 23.023438 C 6.199219 23.023438 6.199219 23.023438 6.195312 23.023438 C 6.15625 23.023438 6.113281 23.003906 6.085938 22.972656 C 5.328125 22.132812 4.699219 21.1875 4.207031 20.171875 C 4.191406 20.132812 4.1875 20.089844 4.203125 20.050781 C 4.21875 20.007812 4.25 19.976562 4.289062 19.960938 L 5.671875 19.390625 C 5.746094 19.359375 5.832031 19.390625 5.867188 19.464844 C 6.265625 20.273438 6.773438 21.027344 7.375 21.710938 C 7.429688 21.769531 7.425781 21.863281 7.367188 21.921875 L 6.308594 22.980469 C 6.28125 23.007812 6.242188 23.023438 6.199219 23.023438 Z M 4.558594 20.183594 C 5 21.070312 5.554688 21.894531 6.207031 22.644531 L 7.046875 21.804688 C 6.5 21.167969 6.035156 20.472656 5.65625 19.730469 Z M 4.558594 20.183594 " fill-opacity="1" fill-rule="nonzero"/><path fill="#0097b2" d="M 9.875 25.785156 C 9.851562 25.785156 9.828125 25.78125 9.808594 25.769531 C 8.792969 25.28125 7.847656 24.648438 7.007812 23.894531 C 6.976562 23.863281 6.957031 23.824219 6.957031 23.78125 C 6.953125 23.738281 6.972656 23.699219 7 23.667969 L 8.058594 22.609375 C 8.117188 22.554688 8.210938 22.550781 8.269531 22.605469 C 8.953125 23.207031 9.707031 23.714844 10.515625 24.109375 C 10.589844 24.144531 10.621094 24.234375 10.589844 24.308594 L 10.019531 25.691406 C 10 25.730469 9.96875 25.761719 9.929688 25.777344 C 9.914062 25.78125 9.894531 25.785156 9.875 25.785156 Z M 7.335938 23.769531 C 8.082031 24.425781 8.910156 24.976562 9.796875 25.417969 L 10.25 24.324219 C 9.507812 23.945312 8.8125 23.480469 8.175781 22.933594 Z M 7.335938 23.769531 " fill-opacity="1" fill-rule="nonzero"/><path fill="#0097b2" d="M 10.941406 23.207031 C 10.917969 23.207031 10.894531 23.203125 10.875 23.191406 C 10.195312 22.851562 9.558594 22.421875 8.980469 21.921875 C 8.949219 21.894531 8.929688 21.855469 8.925781 21.8125 C 8.925781 21.769531 8.941406 21.726562 8.972656 21.695312 L 10.339844 20.328125 C 10.394531 20.273438 10.488281 20.269531 10.546875 20.320312 C 10.921875 20.632812 11.328125 20.902344 11.753906 21.128906 C 11.824219 21.164062 11.855469 21.25 11.828125 21.320312 C 11.828125 21.324219 11.828125 21.324219 11.824219 21.324219 L 11.085938 23.113281 C 11.070312 23.152344 11.039062 23.183594 10.996094 23.199219 C 10.980469 23.203125 10.960938 23.207031 10.941406 23.207031 Z M 9.308594 21.796875 C 9.789062 22.199219 10.3125 22.546875 10.863281 22.839844 L 11.488281 21.335938 C 11.125 21.136719 10.78125 20.90625 10.460938 20.648438 Z M 9.308594 21.796875 " fill-opacity="1" fill-rule="nonzero"/><path fill="#0097b2" d="M 14.328125 26.929688 C 14.324219 26.929688 14.324219 26.929688 14.320312 26.929688 C 13.1875 26.867188 12.074219 26.644531 11.011719 26.269531 C 10.96875 26.257812 10.9375 26.226562 10.921875 26.1875 C 10.902344 26.148438 10.902344 26.105469 10.917969 26.066406 L 11.492188 24.683594 C 11.523438 24.605469 11.609375 24.566406 11.683594 24.59375 C 12.535156 24.886719 13.429688 25.0625 14.335938 25.117188 C 14.417969 25.121094 14.484375 25.191406 14.484375 25.273438 L 14.484375 26.773438 C 14.484375 26.816406 14.464844 26.855469 14.433594 26.886719 C 14.40625 26.914062 14.367188 26.929688 14.328125 26.929688 Z M 11.269531 26.03125 C 12.207031 26.347656 13.183594 26.542969 14.171875 26.609375 L 14.171875 25.417969 C 13.335938 25.355469 12.511719 25.191406 11.722656 24.933594 Z M 11.269531 26.03125 " fill-opacity="1" fill-rule="nonzero"/><path fill="#0097b2" d="M 14.328125 24.136719 C 14.324219 24.136719 14.320312 24.136719 14.316406 24.136719 C 13.554688 24.085938 12.800781 23.933594 12.082031 23.691406 C 12.039062 23.679688 12.007812 23.648438 11.988281 23.609375 C 11.972656 23.570312 11.96875 23.527344 11.988281 23.488281 L 12.726562 21.699219 C 12.746094 21.652344 12.785156 21.621094 12.835938 21.609375 C 12.859375 21.601562 12.890625 21.605469 12.917969 21.613281 C 13.375 21.753906 13.855469 21.851562 14.34375 21.894531 C 14.421875 21.902344 14.484375 21.96875 14.484375 22.046875 L 14.484375 23.984375 C 14.484375 24.027344 14.464844 24.066406 14.433594 24.097656 C 14.40625 24.125 14.367188 24.136719 14.328125 24.136719 Z M 12.335938 23.449219 C 12.933594 23.636719 13.550781 23.761719 14.171875 23.816406 L 14.171875 22.1875 C 13.761719 22.144531 13.355469 22.0625 12.960938 21.949219 Z M 12.335938 23.449219 " fill-opacity="1" fill-rule="nonzero"/><path fill="#0097b2" d="M 14.328125 20.910156 C 14.324219 20.910156 14.316406 20.910156 14.3125 20.910156 C 13.199219 20.785156 12.144531 20.351562 11.265625 19.648438 C 11.230469 19.617188 11.210938 19.578125 11.207031 19.535156 C 11.207031 19.492188 11.222656 19.449219 11.253906 19.417969 L 12.320312 18.347656 C 12.375 18.296875 12.460938 18.289062 12.523438 18.335938 C 13.058594 18.730469 13.691406 18.992188 14.351562 19.09375 C 14.425781 19.105469 14.484375 19.167969 14.484375 19.246094 L 14.484375 20.757812 C 14.484375 20.800781 14.464844 20.84375 14.429688 20.871094 C 14.402344 20.898438 14.367188 20.910156 14.328125 20.910156 Z M 11.597656 19.511719 C 12.355469 20.082031 13.238281 20.449219 14.171875 20.582031 L 14.171875 19.375 C 13.554688 19.265625 12.964844 19.019531 12.445312 18.660156 Z M 11.597656 19.511719 " fill-opacity="1" fill-rule="nonzero"/><path fill="#0097b2" d="M 15.613281 26.929688 C 15.574219 26.929688 15.535156 26.914062 15.507812 26.886719 C 15.476562 26.855469 15.457031 26.816406 15.457031 26.773438 L 15.457031 25.273438 C 15.457031 25.191406 15.523438 25.121094 15.605469 25.117188 C 16.511719 25.0625 17.40625 24.886719 18.257812 24.59375 C 18.335938 24.566406 18.417969 24.605469 18.449219 24.683594 L 19.023438 26.066406 C 19.039062 26.105469 19.039062 26.148438 19.019531 26.1875 C 19.003906 26.226562 18.972656 26.257812 18.929688 26.269531 C 17.867188 26.644531 16.753906 26.867188 15.621094 26.929688 C 15.617188 26.929688 15.617188 26.929688 15.613281 26.929688 Z M 15.769531 25.417969 L 15.769531 26.609375 C 16.757812 26.542969 17.734375 26.347656 18.675781 26.03125 L 18.21875 24.933594 C 17.429688 25.191406 16.605469 25.355469 15.769531 25.417969 Z M 15.769531 25.417969 " fill-opacity="1" fill-rule="nonzero"/><path fill="#0097b2" d="M 19 23.207031 C 18.980469 23.207031 18.960938 23.203125 18.945312 23.199219 C 18.90625 23.183594 18.871094 23.152344 18.855469 23.113281 L 18.117188 21.324219 C 18.113281 21.324219 18.113281 21.320312 18.113281 21.320312 C 18.085938 21.246094 18.117188 21.164062 18.1875 21.128906 C 18.613281 20.902344 19.019531 20.632812 19.394531 20.320312 C 19.453125 20.269531 19.542969 20.273438 19.601562 20.328125 L 20.96875 21.699219 C 21 21.726562 21.015625 21.769531 21.015625 21.8125 C 21.011719 21.855469 20.992188 21.894531 20.960938 21.921875 C 20.382812 22.425781 19.746094 22.851562 19.066406 23.191406 C 19.046875 23.203125 19.023438 23.207031 19 23.207031 Z M 18.453125 21.335938 L 19.078125 22.839844 C 19.628906 22.546875 20.152344 22.199219 20.632812 21.796875 L 19.480469 20.648438 C 19.160156 20.90625 18.816406 21.136719 18.453125 21.335938 Z M 18.453125 21.335938 " fill-opacity="1" fill-rule="nonzero"/><path fill="#0097b2" d="M 20.066406 25.785156 C 20.046875 25.785156 20.03125 25.78125 20.011719 25.777344 C 19.972656 25.761719 19.941406 25.730469 19.925781 25.691406 L 19.351562 24.308594 C 19.320312 24.234375 19.351562 24.144531 19.425781 24.109375 C 20.234375 23.714844 20.988281 23.207031 21.671875 22.605469 C 21.734375 22.550781 21.824219 22.554688 21.882812 22.609375 L 22.941406 23.667969 C 22.972656 23.699219 22.988281 23.738281 22.984375 23.78125 C 22.984375 23.824219 22.964844 23.863281 22.933594 23.894531 C 22.09375 24.648438 21.152344 25.28125 20.132812 25.769531 C 20.113281 25.78125 20.089844 25.785156 20.066406 25.785156 Z M 19.691406 24.324219 L 20.148438 25.421875 C 21.03125 24.976562 21.859375 24.425781 22.605469 23.773438 L 21.765625 22.933594 C 21.128906 23.480469 20.433594 23.945312 19.691406 24.324219 Z M 19.691406 24.324219 " fill-opacity="1" fill-rule="nonzero"/><path fill="#0097b2" d="M 23.742188 23.023438 C 23.699219 23.023438 23.660156 23.007812 23.632812 22.980469 L 22.574219 21.921875 C 22.515625 21.863281 22.511719 21.769531 22.566406 21.710938 C 23.167969 21.027344 23.675781 20.273438 24.074219 19.464844 C 24.109375 19.390625 24.195312 19.359375 24.269531 19.390625 L 25.652344 19.960938 C 25.691406 19.976562 25.722656 20.007812 25.738281 20.050781 C 25.753906 20.089844 25.75 20.132812 25.734375 20.171875 C 25.242188 21.1875 24.613281 22.128906 23.855469 22.972656 C 23.828125 23.003906 23.785156 23.023438 23.746094 23.023438 C 23.742188 23.023438 23.742188 23.023438 23.742188 23.023438 Z M 22.894531 21.804688 L 23.734375 22.644531 C 24.386719 21.894531 24.941406 21.070312 25.382812 20.183594 L 24.285156 19.730469 C 23.910156 20.472656 23.441406 21.167969 22.894531 21.804688 Z M 22.894531 21.804688 " fill-opacity="1" fill-rule="nonzero"/><path fill="#0097b2" d="M 26.085938 19.070312 C 26.066406 19.070312 26.046875 19.066406 26.027344 19.058594 L 24.644531 18.488281 C 24.570312 18.457031 24.53125 18.371094 24.558594 18.292969 C 24.847656 17.441406 25.023438 16.550781 25.078125 15.640625 C 25.085938 15.558594 25.152344 15.496094 25.234375 15.496094 L 26.734375 15.496094 C 26.777344 15.496094 26.820312 15.515625 26.847656 15.542969 C 26.878906 15.574219 26.890625 15.617188 26.890625 15.660156 C 26.828125 16.789062 26.609375 17.902344 26.234375 18.96875 C 26.21875 19.007812 26.1875 19.042969 26.148438 19.058594 C 26.128906 19.066406 26.109375 19.070312 26.085938 19.070312 Z M 24.894531 18.257812 L 25.996094 18.710938 C 26.308594 17.773438 26.503906 16.796875 26.570312 15.804688 L 25.378906 15.804688 C 25.316406 16.644531 25.152344 17.464844 24.894531 18.257812 Z M 24.894531 18.257812 " fill-opacity="1" fill-rule="nonzero"/><g clip-path="url(#2d021da80c)"><path fill="#ffffff" d="M 1.472656 30.796875 L -2.746094 31.96875 C -2.746094 31.703125 -2.734375 31.4375 -2.734375 31.175781 C -2.730469 30.757812 -2.75 30.347656 -2.859375 29.941406 C -2.910156 29.75 -2.976562 29.5625 -3.054688 29.378906 C -3.132812 29.203125 -3.25 29.042969 -3.328125 28.871094 C -3.332031 28.859375 -3.339844 28.847656 -3.347656 28.839844 C -3.96875 27.882812 -5.007812 27.222656 -6.207031 27.117188 L -3.066406 26.09375 C -0.722656 26.101562 1.140625 27.878906 1.40625 30.214844 L 1.472656 30.796875 " fill-opacity="1" fill-rule="nonzero"/></g></svg>